<?xml version="1.0" encoding="UTF-8"?>
<svg version="1.1" xmlns="http://www.w3.org/2000/svg" width="114" height="119">
<path d="M0 0 C0.886875 0.4021875 1.77375 0.804375 2.6875 1.21875 C17.49219058 8.62109529 27.64817245 20.46715677 33 36 C37.36258917 49.42859479 35.25387544 63.56700301 29.52734375 76.265625 C21.95566623 90.22758355 9.75159327 100.07784187 -5.3125 105 C-16.50101534 107.52112349 -27.61543496 106.90113588 -38.265625 102.6796875 C-41.6119462 101.84788766 -42.95283899 102.53839565 -46 104 C-48.75493163 103.80321917 -50.43139165 103.36553394 -52.75 101.875 C-54 100 -54 100 -54.1875 96.8125 C-55.22411249 91.94839526 -57.32526955 90.45469112 -60.87109375 87.15625 C-68.47210877 79.45760726 -73.23447085 67.71740816 -74 57 C-74.09474609 55.85724609 -74.09474609 55.85724609 -74.19140625 54.69140625 C-74.85810584 40.21757331 -70.08088293 26.11683204 -60.5703125 15.21484375 C-58.12943414 12.69606502 -55.62706729 10.32279033 -53 8 C-52.42636719 7.48695312 -51.85273437 6.97390625 -51.26171875 6.4453125 C-38.16678632 -4.017636 -15.27886091 -7.00281125 0 0 Z " fill="#239BD6" transform="translate(76,8)"/>
<path d="M0 0 C5.14996117 0.72641557 7.82234857 4.15092013 11 8 C19.39830367 19.71897186 23.64755311 33.57966401 22 48 C19.25870372 63.45831572 12.4147627 76.94032092 -0.63964844 86.15771484 C-13.44499193 94.57275827 -27.74064656 98.64677461 -43.03271484 95.59423828 C-46.77784208 94.63941392 -50.40102053 93.40203722 -54 92 C-54 91.34 -54 90.68 -54 90 C-54.8353125 90.495 -54.8353125 90.495 -55.6875 91 C-58.30284522 92.1309601 -60.1806646 92.15662974 -63 92 C-62.360625 91.773125 -61.72125 91.54625 -61.0625 91.3125 C-58.85004155 90.16820736 -58.85004155 90.16820736 -58.0625 87.9375 C-57.97062292 83.61927744 -59.46011449 79.99326242 -61 76 C-62.485 76.495 -62.485 76.495 -64 77 C-64.13277344 76.32453125 -64.26554687 75.6490625 -64.40234375 74.953125 C-64.66724609 73.61507812 -64.66724609 73.61507812 -64.9375 72.25 C-65.11152344 71.36828125 -65.28554687 70.4865625 -65.46484375 69.578125 C-65.92247191 67.37349297 -66.45390014 65.18439943 -67 63 C-62.05 62.505 -62.05 62.505 -57 62 C-56.731875 60.72125 -56.46375 59.4425 -56.1875 58.125 C-55.42809901 54.50324145 -55.29922197 54.19948132 -52 52 C-46.38345824 51.27192977 -42.73531183 52.356073 -37.5 54.5 C-32.12023125 56.66427478 -28.74643283 57.926844 -23 57 C-21.25492394 56.20051808 -19.52687488 55.36335426 -17.8125 54.5 C-11.54286317 51.37398725 -5.87661895 51.50803203 1 52 C0.94199219 50.74703125 0.88398437 49.4940625 0.82421875 48.203125 C0.77731522 46.5521206 0.73181569 44.90107589 0.6875 43.25 C0.64560547 42.425 0.60371094 41.6 0.56054688 40.75 C0.51313268 38.398256 0.52842406 36.30597843 1 34 C3.51953125 31.421875 3.51953125 31.421875 6 30 C6.495 32.475 6.495 32.475 7 35 C7.66 35 8.32 35 9 35 C8.505 31.04 8.505 31.04 8 27 C8.66 27 9.32 27 10 27 C13.42329575 39.83735905 12.95054969 51.83426079 6.52734375 63.7265625 C-0.88355626 75.04439089 -10.1150993 81.52945195 -22.88671875 85.6015625 C-33.05859945 87.51936625 -42.15895735 86.27639622 -51.5234375 82.09375 C-53.85369821 80.86533487 -53.85369821 80.86533487 -56 81 C-55.86119295 83.43861254 -55.86119295 83.43861254 -55 86 C-45.96062993 91.8877123 -33.28203565 92.09882379 -22.9453125 90.5390625 C-8.46460427 87.34202302 1.95389651 79.74624078 9.94140625 67.4296875 C17.13805177 55.71119841 18.0594357 41.33352257 15.62060547 27.91210938 C13.47189671 19.4965201 8.36841278 12.65982023 3 6 C2.25878906 5.071875 1.51757812 4.14375 0.75390625 3.1875 C0.17511719 2.465625 -0.40367188 1.74375 -1 1 C-0.67 0.67 -0.34 0.34 0 0 Z " fill="#19549C" transform="translate(89,18)"/>
<path d="M0 0 C0.495 0.99 0.495 0.99 1 2 C-2.63 2.33 -6.26 2.66 -10 3 C-6.37 3.33 -2.74 3.66 1 4 C1 5.65 1 7.3 1 9 C-3.95 9 -8.9 9 -14 9 C-14.0928125 10.918125 -14.0928125 10.918125 -14.1875 12.875 C-14.22230469 13.59429688 -14.25710937 14.31359375 -14.29296875 15.0546875 C-14.19628906 15.69664063 -14.09960938 16.33859375 -14 17 C-13.01 17.66 -12.02 18.32 -11 19 C-10 20 -10 20 -9.9375 22.5625 C-9.958125 23.366875 -9.97875 24.17125 -10 25 C-9.34 25 -8.68 25 -8 25 C-8 26.98 -8 28.96 -8 31 C-6.515 31.495 -6.515 31.495 -5 32 C-5 32.66 -5 33.32 -5 34 C-3.515 34.495 -3.515 34.495 -2 35 C-2.33 36.65 -2.66 38.3 -3 40 C0.40431947 42.26954631 2.16524202 42.36549949 6.1875 42.625 C9.0646875 42.810625 9.0646875 42.810625 12 43 C12 47.62 12 52.24 12 57 C9.1228125 57.0928125 9.1228125 57.0928125 6.1875 57.1875 C1.26815606 57.54040946 -2.39888461 58.3680901 -6.8125 60.5625 C-11.31839738 62.78627381 -14.97801547 64.14536489 -20 63 C-23.32376729 61.78602958 -26.59141874 60.46266891 -29.8671875 59.125 C-33.98144667 57.6475603 -36.68997086 57.36147716 -41 58 C-43.06402685 58.98048938 -43.06402685 58.98048938 -44 61 C-44.7269226 64.10839021 -44.7269226 64.10839021 -45 67 C-48.96 67 -52.92 67 -57 67 C-57.33616257 60.8370195 -56.79001191 55.59100812 -54 50 C-51.4375 47.4375 -51.4375 47.4375 -49 46 C-48.34 46 -47.68 46 -47 46 C-47 45.34 -47 44.68 -47 44 C-45.23225581 43.46877637 -43.46065917 42.95035927 -41.6875 42.4375 C-40.70136719 42.14746094 -39.71523438 41.85742188 -38.69921875 41.55859375 C-36 41 -36 41 -33 42 C-33.020625 40.9275 -33.04125 39.855 -33.0625 38.75 C-33.0142016 35.85209576 -32.86844115 33.71387859 -32 31 C-31.01 31 -30.02 31 -29 31 C-28.82984375 30.40832031 -28.6596875 29.81664062 -28.484375 29.20703125 C-27.01339325 24.41069181 -25.63281968 20.63281968 -22 17 C-21.34 17 -20.68 17 -20 17 C-20 14.03 -20 11.06 -20 8 C-20.33 8.33 -20.66 8.66 -21 9 C-23.35313555 9.07271741 -25.70833668 9.08370868 -28.0625 9.0625 C-29.35285156 9.05347656 -30.64320312 9.04445313 -31.97265625 9.03515625 C-32.97167969 9.02355469 -33.97070312 9.01195312 -35 9 C-35 8.01 -35 7.02 -35 6 C-44.33045697 10.29667358 -44.33045697 10.29667358 -52 17 C-52.80179688 17.42667969 -53.60359375 17.85335938 -54.4296875 18.29296875 C-60.08328496 22.04771357 -62.73929088 30.14727203 -64.375 36.5625 C-66.18862295 46.95811197 -65.64288235 58.78858166 -59.6875 67.8125 C-57.90465585 71.18009451 -57.7812255 71.53662729 -58.75 74.9375 C-59.1625 75.948125 -59.575 76.95875 -60 78 C-65.63090163 73.49527869 -67.55658027 67.63468716 -70 61 C-70.433125 59.88625 -70.86625 58.7725 -71.3125 57.625 C-74.10505006 42.90064513 -70.65510518 29.64906771 -63 17 C-55.22133576 6.49960852 -45.00976771 -0.8912756 -32.0703125 -3.6171875 C-20.81798012 -5.02015006 -10.55246901 -4.28987612 0 0 Z " fill="#5E9BBF" transform="translate(78,13)"/>
<path d="M0 0 C5.5728334 -0.36728433 8.83909952 0.51883002 13.6875 3.25 C14.78449219 3.85328125 15.88148437 4.4565625 17.01171875 5.078125 C19.75019035 6.83933811 21.81851955 8.60090228 24 11 C23.34 11.66 22.68 12.32 22 13 C22.58007812 13.58265625 23.16015625 14.1653125 23.7578125 14.765625 C29.65666196 20.95649671 33.71113163 27.1067159 37 35 C37.37511719 35.88945313 37.75023438 36.77890625 38.13671875 37.6953125 C41.12813462 49.14661487 40.53480772 64.49516086 35 75 C32.861835 78.50738435 30.52392812 81.76265751 28 85 C27.401875 85.886875 26.80375 86.77375 26.1875 87.6875 C17.6530193 96.70966531 5.47572442 102.45012665 -6.89453125 103.16796875 C-13.2277553 103.21035981 -18.91970347 102.79363107 -25 101 C-25.74636719 100.80535156 -26.49273437 100.61070313 -27.26171875 100.41015625 C-29.4375 99.75 -29.4375 99.75 -33 98 C-34.5625 94.9375 -34.5625 94.9375 -35 92 C-34.505 91.01 -34.505 91.01 -34 90 C-32.75283203 90.52400391 -32.75283203 90.52400391 -31.48046875 91.05859375 C-30.39378906 91.51363281 -29.30710937 91.96867187 -28.1875 92.4375 C-27.10855469 92.88996094 -26.02960937 93.34242187 -24.91796875 93.80859375 C-14.23329578 98.17114429 -2.65035114 96.80005649 7.87109375 92.55078125 C19.71682213 86.67967742 27.14076602 77.21797184 31.75390625 65.00390625 C34.33251076 56.33041836 33.17697826 46.82733692 32 38 C31.34 38 30.68 38 30 38 C30.495 41.96 30.495 41.96 31 46 C30.34 46 29.68 46 29 46 C28.34 44.68 27.68 43.36 27 42 C24.45893991 44.20961747 23.69378511 45.73988358 23 49 C21.08458862 49.10841951 19.16740227 49.18578079 17.25 49.25 C16.18265625 49.29640625 15.1153125 49.3428125 14.015625 49.390625 C10.36197888 48.91735478 9.27771895 47.80844958 7 45 C7.66 45 8.32 45 9 45 C9 43.68 9 42.36 9 41 C0.75 41 -7.5 41 -16 41 C-16 40.67 -16 40.34 -16 40 C-8.74 40 -1.48 40 6 40 C6 39.34 6 38.68 6 38 C-0.27 38 -6.54 38 -13 38 C-13 37.67 -13 37.34 -13 37 C-7.72 37 -2.44 37 3 37 C3 35.02 3 33.04 3 31 C2.34 31 1.68 31 1 31 C1 29.35 1 27.7 1 26 C-2.96 26 -6.92 26 -11 26 C-7 23 -7 23 -3 23 C-3.33 20.36 -3.66 17.72 -4 15 C-0.94730154 13.47365077 1.75845689 14.16205556 5.125 14.4375 C6.40632813 14.53933594 7.68765625 14.64117187 9.0078125 14.74609375 C9.99523437 14.82988281 10.98265625 14.91367187 12 15 C12 13.35 12 11.7 12 10 C8.04 10 4.08 10 0 10 C0.33 9.34 0.66 8.68 1 8 C3.28515625 7.5859375 3.28515625 7.5859375 6.0625 7.375 C6.98160156 7.30023437 7.90070313 7.22546875 8.84765625 7.1484375 C9.91306641 7.07496094 9.91306641 7.07496094 11 7 C10.28972656 6.74605469 9.57945313 6.49210938 8.84765625 6.23046875 C7.92855469 5.88628906 7.00945312 5.54210937 6.0625 5.1875 C5.14597656 4.85105469 4.22945312 4.51460937 3.28515625 4.16796875 C1 3 1 3 0 0 Z " fill="#1C4C92" transform="translate(67,7)"/>
<path d="M0 0 C4.27077656 -0.05794812 8.54145236 -0.09357874 12.8125 -0.125 C14.02744141 -0.14175781 15.24238281 -0.15851562 16.49414062 -0.17578125 C17.65751953 -0.18222656 18.82089844 -0.18867187 20.01953125 -0.1953125 C21.62985229 -0.21102295 21.62985229 -0.21102295 23.27270508 -0.22705078 C26 0 26 0 29 2 C31.96842658 2.45915507 31.96842658 2.45915507 35.1875 2.625 C37.105625 2.74875 39.02375 2.8725 41 3 C41 7.62 41 12.24 41 17 C38.1228125 17.0928125 38.1228125 17.0928125 35.1875 17.1875 C30.26815606 17.54040946 26.60111539 18.3680901 22.1875 20.5625 C17.68160262 22.78627381 14.02198453 24.14536489 9 23 C5.67623271 21.78602958 2.40858126 20.46266891 -0.8671875 19.125 C-4.98144667 17.6475603 -7.68997086 17.36147716 -12 18 C-14.06402685 18.98048938 -14.06402685 18.98048938 -15 21 C-15.7269226 24.10839021 -15.7269226 24.10839021 -16 27 C-19.96 27 -23.92 27 -28 27 C-28.36369603 20.33223943 -28.02449082 13.84595746 -23.734375 8.390625 C-17.73937689 3.2434044 -8.58314924 3 -1 3 C-0.67 2.01 -0.34 1.02 0 0 Z " fill="#C5E1F4" transform="translate(49,53)"/>
<path d="M0 0 C10.75879347 3.82493008 17.0476576 13.12892838 22 23 C24.84436281 29.60408898 25.51645199 35.66330411 25.4375 42.8125 C25.42920166 43.78155273 25.42090332 44.75060547 25.41235352 45.74902344 C25.12304406 58.02562824 21.50545505 66.37305053 14 76 C13.401875 76.886875 12.80375 77.77375 12.1875 78.6875 C3.6530193 87.70966531 -8.52427558 93.45012665 -20.89453125 94.16796875 C-27.2277553 94.21035981 -32.91970347 93.79363107 -39 92 C-39.74636719 91.80535156 -40.49273437 91.61070313 -41.26171875 91.41015625 C-43.4375 90.75 -43.4375 90.75 -47 89 C-48.5625 85.9375 -48.5625 85.9375 -49 83 C-48.505 82.01 -48.505 82.01 -48 81 C-46.75283203 81.52400391 -46.75283203 81.52400391 -45.48046875 82.05859375 C-44.39378906 82.51363281 -43.30710937 82.96867187 -42.1875 83.4375 C-41.10855469 83.88996094 -40.02960937 84.34242187 -38.91796875 84.80859375 C-28.23329578 89.17114429 -16.65035114 87.80005649 -6.12890625 83.55078125 C5.71682213 77.67967742 13.14076602 68.21797184 17.75390625 56.00390625 C20.93617645 45.29990649 19.5383239 32.91207459 14.48828125 23.046875 C10.86718284 17.09037155 6.42279037 10.21139518 0 7 C0 4.69 0 2.38 0 0 Z " fill="#9AC7EE" transform="translate(81,16)"/>
<path d="M0 0 C0.83789062 -0.01224609 1.67578125 -0.02449219 2.5390625 -0.03710938 C7.30961817 -0.04836069 11.14231565 0.34040042 15.625 2.1875 C14.635 2.5175 13.645 2.8475 12.625 3.1875 C11.635 2.6925 11.635 2.6925 10.625 2.1875 C11.12 3.6725 11.12 3.6725 11.625 5.1875 C10.34625 5.16429687 9.0675 5.14109375 7.75 5.1171875 C6.04167255 5.09841467 4.33333873 5.08021611 2.625 5.0625 C1.78582031 5.04574219 0.94664063 5.02898438 0.08203125 5.01171875 C-5.44866303 4.96884515 -10.06872873 5.61422722 -15.375 7.1875 C-16.22707031 7.43628906 -17.07914063 7.68507813 -17.95703125 7.94140625 C-29.01123212 11.94879606 -37.7714573 19.89974582 -43.375 30.1875 C-50.06274499 45.11301421 -51.45972719 58.35659751 -45.8203125 73.80859375 C-44.03959162 77.97163039 -42.0034562 81.50766132 -39.375 85.1875 C-37.56198242 80.75656802 -37.56198242 80.75656802 -38.375 76.1875 C-37.715 76.1875 -37.055 76.1875 -36.375 76.1875 C-36.375 72.5575 -36.375 68.9275 -36.375 65.1875 C-36.045 65.1875 -35.715 65.1875 -35.375 65.1875 C-35.375 68.4875 -35.375 71.7875 -35.375 75.1875 C-31.745 75.1875 -28.115 75.1875 -24.375 75.1875 C-24.375 75.5175 -24.375 75.8475 -24.375 76.1875 C-28.83 76.6825 -28.83 76.6825 -33.375 77.1875 C-33.045 78.033125 -32.715 78.87875 -32.375 79.75 C-31.31394046 83.39739216 -31.22390987 86.41024664 -31.375 90.1875 C-29.395 89.1975 -29.395 89.1975 -27.375 88.1875 C-26.83967177 89.74509343 -26.32234622 91.30888045 -25.8125 92.875 C-25.52246094 93.74511719 -25.23242188 94.61523438 -24.93359375 95.51171875 C-24.32358039 98.43381074 -24.59796367 100.33150553 -25.375 103.1875 C-25.045 103.1875 -24.715 103.1875 -24.375 103.1875 C-22.89 103.6825 -22.89 103.6825 -21.375 104.1875 C-24.07791116 106.11815083 -25.62511961 107.22320859 -29 107.0625 C-31.68433354 106.07353501 -32.78654109 105.57018836 -34.375 103.1875 C-34.436875 102.135625 -34.49875 101.08375 -34.5625 100 C-35.59911249 95.13589526 -37.70026955 93.64219112 -41.24609375 90.34375 C-48.84710877 82.64510726 -53.60947085 70.90490816 -54.375 60.1875 C-54.46974609 59.04474609 -54.46974609 59.04474609 -54.56640625 57.87890625 C-55.23310584 43.40507331 -50.45588293 29.30433204 -40.9453125 18.40234375 C-38.50443414 15.88356502 -36.00206729 13.51029033 -33.375 11.1875 C-32.80136719 10.67445312 -32.22773437 10.16140625 -31.63671875 9.6328125 C-22.69145452 2.48547979 -11.13482789 0.00848691 0 0 Z " fill="#419EC5" transform="translate(56.375,4.8125)"/>
<path d="M0 0 C0.495 0.99 0.495 0.99 1 2 C-11.38695695 3.39541109 -23.5883432 2.70735857 -36 2 C-36.33 2.99 -36.66 3.98 -37 5 C-39.1875 6.2890625 -39.1875 6.2890625 -42 7.625 C-53.31386009 13.61210106 -59.71653729 22.33995753 -63.80859375 34.37890625 C-66.42585675 44.46890637 -66.02158073 56.83698246 -60.83984375 66.06640625 C-60.45957031 66.64261719 -60.07929687 67.21882813 -59.6875 67.8125 C-57.90465585 71.18009451 -57.7812255 71.53662729 -58.75 74.9375 C-59.1625 75.948125 -59.575 76.95875 -60 78 C-65.63090163 73.49527869 -67.55658027 67.63468716 -70 61 C-70.433125 59.88625 -70.86625 58.7725 -71.3125 57.625 C-74.10505006 42.90064513 -70.65510518 29.64906771 -63 17 C-55.22133576 6.49960852 -45.00976771 -0.8912756 -32.0703125 -3.6171875 C-20.81798012 -5.02015006 -10.55246901 -4.28987612 0 0 Z " fill="#E2F7FB" transform="translate(78,13)"/>
<path d="M0 0 C5.14996117 0.72641557 7.82234857 4.15092013 11 8 C19.39830367 19.71897186 23.64755311 33.57966401 22 48 C19.25870372 63.45831572 12.4147627 76.94032092 -0.63964844 86.15771484 C-13.44499193 94.57275827 -27.74064656 98.64677461 -43.03271484 95.59423828 C-46.77784208 94.63941392 -50.40102053 93.40203722 -54 92 C-54 91.34 -54 90.68 -54 90 C-54.8353125 90.495 -54.8353125 90.495 -55.6875 91 C-58.30284522 92.1309601 -60.1806646 92.15662974 -63 92 C-62.360625 91.773125 -61.72125 91.54625 -61.0625 91.3125 C-58.75449698 90.16553512 -58.75449698 90.16553512 -58.3125 87.5625 C-58.209375 86.716875 -58.10625 85.87125 -58 85 C-57.67 84.01 -57.34 83.02 -57 82 C-56.76667969 82.61488281 -56.53335938 83.22976562 -56.29296875 83.86328125 C-53.89092352 87.83282428 -49.24632978 88.65328843 -45 90 C-31.09684766 93.08958941 -17.85848969 90.5721823 -5.5703125 83.6953125 C4.28366232 77.1958823 12.12111407 67.0621399 15.40625 55.625 C18.11859892 39.06539609 16.7594794 24.8609242 6.9375 11 C5.64342668 9.31898594 4.33136608 7.65163506 3 6 C2.25878906 5.071875 1.51757812 4.14375 0.75390625 3.1875 C0.17511719 2.465625 -0.40367188 1.74375 -1 1 C-0.67 0.67 -0.34 0.34 0 0 Z " fill="#203873" transform="translate(89,18)"/>
<path d="M0 0 C5.5728334 -0.36728433 8.83909952 0.51883002 13.6875 3.25 C14.78449219 3.85328125 15.88148437 4.4565625 17.01171875 5.078125 C19.75019035 6.83933811 21.81851955 8.60090228 24 11 C22.02 11.99 22.02 11.99 20 13 C18.02 11.68 16.04 10.36 14 9 C14 11.31 14 13.62 14 16 C14.598125 16.2475 15.19625 16.495 15.8125 16.75 C18.28647521 18.16370012 19.43370255 19.65055383 21 22 C20.40844669 23.31823302 19.80128537 24.62947051 19.1875 25.9375 C18.85105469 26.66839844 18.51460937 27.39929688 18.16796875 28.15234375 C17 30 17 30 14 31 C13.67 31.66 13.34 32.32 13 33 C12.34 33 11.68 33 11 33 C11 33.66 11 34.32 11 35 C12.485 34.505 12.485 34.505 14 34 C14.33 33.34 14.66 32.68 15 32 C16.485 32.495 16.485 32.495 18 33 C17.01 33.495 17.01 33.495 16 34 C15.62690101 35.65821773 15.29299023 37.32577014 15 39 C14 40 14 40 10.9375 40.0625 C9.968125 40.041875 8.99875 40.02125 8 40 C7.505 38.515 7.505 38.515 7 37 C6.34 36.67 5.68 36.34 5 36 C4.3671875 34.15234375 4.3671875 34.15234375 3.875 31.9375 C3.62363281 30.83728516 3.62363281 30.83728516 3.3671875 29.71484375 C3.24601562 29.14894531 3.12484375 28.58304688 3 28 C3.66 28 4.32 28 5 28 C4.96877057 26.03243548 4.96877057 26.03243548 4 24 C1.00384054 22.6954344 1.00384054 22.6954344 -2 22 C-2 20.35 -2 18.7 -2 17 C2.92737019 15.02905192 6.78020872 14.8200072 12 15 C12 13.35 12 11.7 12 10 C8.04 10 4.08 10 0 10 C0.33 9.34 0.66 8.68 1 8 C3.28515625 7.5859375 3.28515625 7.5859375 6.0625 7.375 C6.98160156 7.30023437 7.90070313 7.22546875 8.84765625 7.1484375 C9.91306641 7.07496094 9.91306641 7.07496094 11 7 C10.28972656 6.74605469 9.57945313 6.49210938 8.84765625 6.23046875 C7.92855469 5.88628906 7.00945312 5.54210937 6.0625 5.1875 C5.14597656 4.85105469 4.22945313 4.51460937 3.28515625 4.16796875 C1 3 1 3 0 0 Z M18 32 C20 33 20 33 20 33 Z " fill="#1366AC" transform="translate(67,7)"/>
<path d="M0 0 C0.33 0 0.66 0 1 0 C1 3.3 1 6.6 1 10 C4.63 10 8.26 10 12 10 C12 10.33 12 10.66 12 11 C7.545 11.495 7.545 11.495 3 12 C3.33 12.845625 3.66 13.69125 4 14.5625 C5.06105954 18.20989216 5.15109013 21.22274664 5 25 C6.32 24.34 7.64 23.68 9 23 C9.53532823 24.55759343 10.05265378 26.12138045 10.5625 27.6875 C10.85253906 28.55761719 11.14257812 29.42773438 11.44140625 30.32421875 C12.05141961 33.24631074 11.77703633 35.14400553 11 38 C11.33 38 11.66 38 12 38 C13.485 38.495 13.485 38.495 15 39 C12.29708884 40.93065083 10.74988039 42.03570859 7.375 41.875 C4.69066646 40.88603501 3.58845891 40.38268836 2 38 C1.87625 36.88625 1.7525 35.7725 1.625 34.625 C0.858952 30.1819216 -0.76126641 28.99582858 -4 26 C-4.8125 23.6875 -4.8125 23.6875 -5 22 C-4.01 22 -3.02 22 -2 22 C-1.814375 20.741875 -1.62875 19.48375 -1.4375 18.1875 C-1.33308594 17.47980469 -1.22867187 16.77210937 -1.12109375 16.04296875 C-0.86095201 13.7974658 -0.86095201 13.7974658 -2 11 C-1.34 11 -0.68 11 0 11 C0 7.37 0 3.74 0 0 Z " fill="#307CA8" transform="translate(20,70)"/>
<path d="M0 0 C0.66 0.33 1.32 0.66 2 1 C2.33 1.99 2.66 2.98 3 4 C15.87392742 11.1521819 30.91509495 9.27218497 45 8 C43.20147514 11.37223411 42.02590497 11.99135583 38.32421875 13.2265625 C34.14849956 14.09011 30.0698895 14.38292902 25.8125 14.375 C25.08361572 14.37628906 24.35473145 14.37757812 23.60375977 14.37890625 C16.59102672 14.24417849 10.54374932 12.54921713 4 10 C4 9.34 4 8.68 4 8 C3.443125 8.33 2.88625 8.66 2.3125 9 C-0.30284522 10.1309601 -2.1806646 10.15662974 -5 10 C-4.360625 9.773125 -3.72125 9.54625 -3.0625 9.3125 C-0.76123042 8.16123555 -0.76123042 8.16123555 -0.25 5.5625 C0.04854998 2.93147372 0.04854998 2.93147372 0 0 Z " fill="#244C84" transform="translate(31,100)"/>
<path d="M0 0 C0.33 0 0.66 0 1 0 C1.061875 0.9075 1.12375 1.815 1.1875 2.75 C2.19220471 6.76881884 3.68045629 7.6763194 7 10 C7.33 10.66 7.66 11.32 8 12 C8.99 12.33 9.98 12.66 11 13 C10.01 15.97 9.02 18.94 8 22 C7.67 22 7.34 22 7 22 C6.67 24.97 6.34 27.94 6 31 C5.01 31 4.02 31 3 31 C-0.84953804 21.94015698 -2.88531469 13.93353097 -2 4 C-0.98828125 1.6640625 -0.98828125 1.6640625 0 0 Z " fill="#2B9BD1" transform="translate(14,50)"/>
<path d="M0 0 C1.8871875 0.061875 1.8871875 0.061875 3.8125 0.125 C3.4825 1.115 3.1525 2.105 2.8125 3.125 C0.75 3.8125 0.75 3.8125 -1.1875 4.125 C-1.5175 5.775 -1.8475 7.425 -2.1875 9.125 C-2.8475 9.125 -3.5075 9.125 -4.1875 9.125 C-4.5175 10.115 -4.8475 11.105 -5.1875 12.125 C-6.1775 12.125 -7.1675 12.125 -8.1875 12.125 C-8.5175 12.785 -8.8475 13.445 -9.1875 14.125 C-12.1575 13.63 -12.1575 13.63 -15.1875 13.125 C-14.8575 14.775 -14.5275 16.425 -14.1875 18.125 C-13.1975 18.455 -12.2075 18.785 -11.1875 19.125 C-10.8575 20.115 -10.5275 21.105 -10.1875 22.125 C-9.40375 22.24875 -8.62 22.3725 -7.8125 22.5 C-5.1875 23.125 -5.1875 23.125 -3.1875 25.125 C-3.5625 27.25 -3.5625 27.25 -4.1875 29.125 C-5.5075 28.795 -6.8275 28.465 -8.1875 28.125 C-8.5175 29.115 -8.8475 30.105 -9.1875 31.125 C-11.1875 30.125 -11.1875 30.125 -12.3125 27.0625 C-12.60125 26.093125 -12.89 25.12375 -13.1875 24.125 C-14.1775 24.455 -15.1675 24.785 -16.1875 25.125 C-16.32027344 24.44953125 -16.45304687 23.7740625 -16.58984375 23.078125 C-16.76644531 22.18609375 -16.94304688 21.2940625 -17.125 20.375 C-17.29902344 19.49328125 -17.47304688 18.6115625 -17.65234375 17.703125 C-18.10997191 15.49849297 -18.64140014 13.30939943 -19.1875 11.125 C-15.8875 10.795 -12.5875 10.465 -9.1875 10.125 C-8.919375 8.84625 -8.65125 7.5675 -8.375 6.25 C-7.33485089 1.28928888 -4.99683143 -0.16383054 0 0 Z " fill="#277EB3" transform="translate(41.1875,69.875)"/>
<path d="M0 0 C0.66 0 1.32 0 2 0 C4.77409766 10.40286623 5.26335796 19.95065624 1 30 C-0.98 29.67 -2.96 29.34 -5 29 C-4.34 28.67 -3.68 28.34 -3 28 C-3 21.4 -3 14.8 -3 8 C-3.99 8 -4.98 8 -6 8 C-6 13.61 -6 19.22 -6 25 C-6.33 25 -6.66 25 -7 25 C-7.13510253 22.08178537 -7.2341305 19.16982348 -7.3125 16.25 C-7.35439453 15.425 -7.39628906 14.6 -7.43945312 13.75 C-7.48686732 11.398256 -7.47157594 9.30597843 -7 7 C-4.48046875 4.421875 -4.48046875 4.421875 -2 3 C-1.67 4.65 -1.34 6.3 -1 8 C-0.34 8 0.32 8 1 8 C0.67 5.36 0.34 2.72 0 0 Z " fill="#2B4B88" transform="translate(97,45)"/>
<path d="M0 0 C1.47188135 2.33769391 2.0430357 3.58535447 1.75390625 6.37109375 C0.4091788 11.06022107 -2.87619192 14.34609116 -6 18 C-6.50402344 18.61230469 -7.00804688 19.22460938 -7.52734375 19.85546875 C-11.24621033 23.99069699 -15.54181152 26.73216616 -20.3125 29.5 C-20.93584229 29.86295166 -21.55918457 30.22590332 -22.20141602 30.59985352 C-23.76436273 31.46920125 -25.37949421 32.2433436 -27 33 C-27.66 32.67 -28.32 32.34 -29 32 C-29 31.67 -29 31.34 -29 31 C-30.32 30.67 -31.64 30.34 -33 30 C-31.37191406 29.22076172 -31.37191406 29.22076172 -29.7109375 28.42578125 C-28.26541192 27.72179152 -26.8201113 27.01733975 -25.375 26.3125 C-24.66214844 25.97283203 -23.94929688 25.63316406 -23.21484375 25.28320312 C-15.87157746 21.6789394 -10.73950147 17.23432365 -6.25 10.4375 C-5.67185547 9.59155273 -5.67185547 9.59155273 -5.08203125 8.72851562 C-3.17461646 5.90699374 -1.42335205 3.09654781 0 0 Z " fill="#2A4078" transform="translate(103,78)"/>
<path d="M0 0 C0.95777344 0.42152344 1.91554687 0.84304687 2.90234375 1.27734375 C13.05110166 5.52572086 22.02861475 6.97284311 33 7 C32.36578125 7.28617187 31.7315625 7.57234375 31.078125 7.8671875 C28.58438799 9.22655542 28.03567876 10.41080309 27 13 C20.98988392 13.21854968 15.79339278 12.60199905 10 11 C9.24847656 10.80535156 8.49695312 10.61070313 7.72265625 10.41015625 C5.5625 9.75 5.5625 9.75 2 8 C0.59410764 5.12963643 0 3.17285012 0 0 Z " fill="#ABD5F3" transform="translate(32,97)"/>
<path d="M0 0 C7.94145532 2.76832422 14.06353978 8.94189603 18.19921875 16.17578125 C19.25585337 18.58284645 19.45620698 20.4148271 19 23 C18.67 23.66 18.34 24.32 18 25 C14.29619035 23.76539678 13.8701707 22.61057721 11.8125 19.375 C9.36835078 15.70355362 7.03978941 13.01911357 3.5625 10.3125 C0.33380778 7.69968549 0.05806598 7.4572696 -0.5 3.0625 C-0.335 2.051875 -0.17 1.04125 0 0 Z " fill="#A2CEEF" transform="translate(81,16)"/>
<path d="M0 0 C5.5728334 -0.36728433 8.83909952 0.51883002 13.6875 3.25 C14.78449219 3.85328125 15.88148437 4.4565625 17.01171875 5.078125 C19.75019035 6.83933811 21.81851955 8.60090228 24 11 C22.02 11.99 22.02 11.99 20 13 C18.02 11.68 16.04 10.36 14 9 C14.020625 10.134375 14.04125 11.26875 14.0625 12.4375 C14 16 14 16 13 17 C11.33382885 17.04063832 9.66611905 17.042721 8 17 C9.32 16.67 10.64 16.34 12 16 C12 14.02 12 12.04 12 10 C8.04 10 4.08 10 0 10 C0.33 9.34 0.66 8.68 1 8 C3.28515625 7.5859375 3.28515625 7.5859375 6.0625 7.375 C6.98160156 7.30023437 7.90070313 7.22546875 8.84765625 7.1484375 C9.91306641 7.07496094 9.91306641 7.07496094 11 7 C10.28972656 6.74605469 9.57945313 6.49210938 8.84765625 6.23046875 C7.92855469 5.88628906 7.00945312 5.54210937 6.0625 5.1875 C5.14597656 4.85105469 4.22945313 4.51460937 3.28515625 4.16796875 C1 3 1 3 0 0 Z " fill="#2774A8" transform="translate(67,7)"/>
<path d="M0 0 C2.33944736 0.28730055 4.6739143 0.61936779 7 1 C7 1.33 7 1.66 7 2 C5.35 2.33 3.7 2.66 2 3 C1.67 4.65 1.34 6.3 1 8 C3.31 8.66 5.62 9.32 8 10 C7.814375 10.680625 7.62875 11.36125 7.4375 12.0625 C6.91476057 15.57232191 7.38621423 18.52188063 8 22 C8.99 22.33 9.98 22.66 11 23 C11.33 24.32 11.66 25.64 12 27 C3.75 27 -4.5 27 -13 27 C-13 26.67 -13 26.34 -13 26 C-5.74 26 1.52 26 9 26 C9 25.34 9 24.68 9 24 C2.73 24 -3.54 24 -10 24 C-10 23.67 -10 23.34 -10 23 C-4.72 23 0.56 23 6 23 C6 21.02 6 19.04 6 17 C5.34 17 4.68 17 4 17 C4 15.35 4 13.7 4 12 C0.04 12 -3.92 12 -8 12 C-4 9 -4 9 0 9 C-0.185625 7.700625 -0.37125 6.40125 -0.5625 5.0625 C-0.87890625 2.84765625 -0.87890625 2.84765625 -1 1 C-0.67 0.67 -0.34 0.34 0 0 Z " fill="#275E88" transform="translate(64,21)"/>
<path d="M0 0 C-2.30747982 8.20437269 -9.92900564 14.71952306 -17 19 C-25.87927928 23.37357357 -25.87927928 23.37357357 -30 22 C-29.26394531 21.61328125 -28.52789062 21.2265625 -27.76953125 20.828125 C-19.86024626 16.60705349 -12.8419206 12.22501202 -7.4375 4.875 C-5.42829158 2.25429337 -3.42965075 0 0 0 Z " fill="#204086" transform="translate(95,80)"/>
<path d="M0 0 C0 1.65 0 3.3 0 5 C-0.99 4.34 -1.98 3.68 -3 3 C-7.17697241 2.52844039 -7.17697241 2.52844039 -10.8125 4.3125 C-12.19455846 6.10476225 -12.19455846 6.10476225 -13 9 C-15 9 -15 9 -16.625 7.5 C-17.07875 7.005 -17.5325 6.51 -18 6 C-18.66 6.66 -19.32 7.32 -20 8 C-23.0390625 7.9765625 -23.0390625 7.9765625 -26.625 7.625 C-27.81351563 7.51414062 -29.00203125 7.40328125 -30.2265625 7.2890625 C-31.59941406 7.14597656 -31.59941406 7.14597656 -33 7 C-33 6.67 -33 6.34 -33 6 C-31.948125 5.85304688 -31.948125 5.85304688 -30.875 5.703125 C-24.22927124 4.66401177 -24.22927124 4.66401177 -18.1875 1.875 C-12.64146125 -1.26426722 -6.16127813 -0.3115253 0 0 Z " fill="#193F7E" transform="translate(91,70)"/>
<path d="M0 0 C0.33 0 0.66 0 1 0 C1.061875 0.9075 1.12375 1.815 1.1875 2.75 C2.18446044 6.73784176 3.64888166 7.76592111 7 10 C6.58534283 14.83766699 4.5801385 16.85646376 1 20 C0.34 20.33 -0.32 20.66 -1 21 C-2.45258595 14.28178997 -3.6363593 6.12288167 0 0 Z " fill="#37A4D8" transform="translate(14,50)"/>
<path d="M0 0 C0.33 0 0.66 0 1 0 C1.64308473 9.59268061 0.16639809 17.96305363 -3 27 C-3.66 27.66 -4.32 28.32 -5 29 C-7.28676309 23.79126184 -6.54352841 21.33619821 -5 16 C-4.72433032 13.36033278 -4.51572333 10.71278937 -4.375 8.0625 C-4.33632812 7.37865234 -4.29765625 6.69480469 -4.2578125 5.99023438 C-4.16477588 4.32720487 -4.08136213 2.66364153 -4 1 C-3.67 1 -3.34 1 -3 1 C-2.67 4.96 -2.34 8.92 -2 13 C-0.70651608 8.47050597 -0.70651608 8.47050597 -1.5625 5.9375 C-2.14582607 3.35419883 -1.34051555 2.20790796 0 0 Z " fill="#243572" transform="translate(110,54)"/>
<path d="M0 0 C1.2065625 0.0309375 1.2065625 0.0309375 2.4375 0.0625 C2.40269531 0.97773438 2.36789063 1.89296875 2.33203125 2.8359375 C2.30496094 4.02445313 2.27789062 5.21296875 2.25 6.4375 C2.19779297 8.21253906 2.19779297 8.21253906 2.14453125 10.0234375 C2.24121094 11.02632812 2.33789062 12.02921875 2.4375 13.0625 C3.4275 13.7225 4.4175 14.3825 5.4375 15.0625 C1.8075 15.0625 -1.8225 15.0625 -5.5625 15.0625 C-5.5625 14.4025 -5.5625 13.7425 -5.5625 13.0625 C-4.9025 13.0625 -4.2425 13.0625 -3.5625 13.0625 C-3.57410156 12.20785156 -3.58570313 11.35320313 -3.59765625 10.47265625 C-3.60667969 9.36792969 -3.61570313 8.26320313 -3.625 7.125 C-3.63660156 6.02285156 -3.64820313 4.92070312 -3.66015625 3.78515625 C-3.52747618 0.086036 -3.52747618 0.086036 0 0 Z " fill="#80B8D0" transform="translate(61.5625,16.9375)"/>
<path d="M0 0 C9.57 0 19.14 0 29 0 C29 0.99 29 1.98 29 3 C19.43 3 9.86 3 0 3 C0 2.01 0 1.02 0 0 Z " fill="#CEECFC" transform="translate(47,48)"/>
<path d="M0 0 C1.8871875 0.061875 1.8871875 0.061875 3.8125 0.125 C3.4825 1.115 3.1525 2.105 2.8125 3.125 C0.75 3.8125 0.75 3.8125 -1.1875 4.125 C-1.5175 5.775 -1.8475 7.425 -2.1875 9.125 C-2.8475 9.125 -3.5075 9.125 -4.1875 9.125 C-4.5175 10.115 -4.8475 11.105 -5.1875 12.125 C-9.8075 12.125 -14.4275 12.125 -19.1875 12.125 C-19.1875 11.795 -19.1875 11.465 -19.1875 11.125 C-15.8875 10.795 -12.5875 10.465 -9.1875 10.125 C-8.919375 8.84625 -8.65125 7.5675 -8.375 6.25 C-7.33485089 1.28928888 -4.99683143 -0.16383054 0 0 Z " fill="#1E7CBC" transform="translate(41.1875,69.875)"/>
<path d="M0 0 C0.66 0 1.32 0 2 0 C1.34 8.25 0.68 16.5 0 25 C-4 21 -4 21 -4.4609375 18.44921875 C-4.24605252 11.54359691 -3.92361297 5.88541945 0 0 Z " fill="#359EC9" transform="translate(6,44)"/>
<path d="M0 0 C5.61 0 11.22 0 17 0 C17 1.65 17 3.3 17 5 C11.39 5 5.78 5 0 5 C0 3.35 0 1.7 0 0 Z " fill="#CEE9F7" transform="translate(53,39)"/>
<path d="M0 0 C2.04791862 2.04791862 2.56265691 3.14820414 3.5 5.8125 C4.34159008 8.20347901 5.19688919 10.40315405 6.3125 12.6875 C7.22164506 15.74553339 6.42684566 17.22557788 5 20 C0.46977437 16.09897237 -2.32853679 11.79585294 -4 6 C-3.67 5.01 -3.34 4.02 -3 3 C0 8.625 0 8.625 0 12 C0.99 12 1.98 12 3 12 C2.7834375 11.46890625 2.566875 10.9378125 2.34375 10.390625 C2.0653125 9.68421875 1.786875 8.9778125 1.5 8.25 C1.2215625 7.55390625 0.943125 6.8578125 0.65625 6.140625 C0 4 0 4 0 0 Z " fill="#D4F3FB" transform="translate(13,71)"/>
<path d="M0 0 C3.96 1.98 3.96 1.98 8 4 C8 4.66 8 5.32 8 6 C9.32 6 10.64 6 12 6 C12 6.66 12 7.32 12 8 C12.99 8.33 13.98 8.66 15 9 C14.67 9.66 14.34 10.32 14 11 C4.51588785 10.19626168 4.51588785 10.19626168 1 7 C0.1875 3.3125 0.1875 3.3125 0 0 Z " fill="#B9DEF6" transform="translate(32,97)"/>
<path d="M0 0 C1.32 0 2.64 0 4 0 C3 4 2 8 1 12 C-2.96 12 -6.92 12 -11 12 C-11 9.36 -11 6.72 -11 4 C-10.01 3.67 -9.02 3.34 -8 3 C-7.67 5.31 -7.34 7.62 -7 10 C-5.35 10.33 -3.7 10.66 -2 11 C-2.04125 10.29875 -2.0825 9.5975 -2.125 8.875 C-1.98331668 5.61628372 -1.13265314 3.0440053 0 0 Z " fill="#D7F4FD" transform="translate(32,68)"/>
<path d="M0 0 C4.95 0 9.9 0 15 0 C14.67 1.65 14.34 3.3 14 5 C9.38 5 4.76 5 0 5 C0 3.35 0 1.7 0 0 Z " fill="#D8F3FC" transform="translate(43,17)"/>
<path d="M0 0 C5.04400688 0.64391577 7.88145194 4.26873972 11 8 C12.4375 10.9375 12.4375 10.9375 13 13 C12.01 13.99 11.02 14.98 10 16 C9.62488281 15.41992188 9.24976562 14.83984375 8.86328125 14.2421875 C5.80735369 9.57747188 2.66462807 5.20354396 -1 1 C-0.67 0.67 -0.34 0.34 0 0 Z " fill="#254F89" transform="translate(89,18)"/>
<path d="M0 0 C4.62 0 9.24 0 14 0 C14 1.65 14 3.3 14 5 C9.38 5 4.76 5 0 5 C0 3.35 0 1.7 0 0 Z " fill="#C8E7F9" transform="translate(65,17)"/>
<path d="M0 0 C2.72384822 5.05857527 4.67947366 9.28978955 3 15 C1.33388095 15.042721 -0.33382885 15.04063832 -2 15 C-3 14 -3 14 -3.25 11.4375 C-2.9363148 7.1243285 -1.65063348 3.9890309 0 0 Z " fill="#BCDFF4" transform="translate(28,93)"/>
<path d="M0 0 C0.33 0 0.66 0 1 0 C1.21278058 4.46839215 0.59138085 7.82262526 -1 12 C-0.34 12 0.32 12 1 12 C1 14.97 1 17.94 1 21 C0.34 20.67 -0.32 20.34 -1 20 C-0.67 19.34 -0.34 18.68 0 18 C-0.99 18 -1.98 18 -3 18 C-3 21.3 -3 24.6 -3 28 C-3.33 28 -3.66 28 -4 28 C-4.35061156 19.10485489 -3.88528901 11.44657145 -1 3 C-0.67 2.01 -0.34 1.02 0 0 Z " fill="#D2F1F7" transform="translate(10,39)"/>
<path d="M0 0 C1.9375 0.75 1.9375 0.75 4 2 C4.75 4.125 4.75 4.125 5 6 C4.34 6 3.68 6 3 6 C2.67 6.99 2.34 7.98 2 9 C-0.97 8.505 -0.97 8.505 -4 8 C-4.33 8.99 -4.66 9.98 -5 11 C-5.99 11 -6.98 11 -8 11 C-8 10.34 -8 9.68 -8 9 C-7.34 9 -6.68 9 -6 9 C-5.34 7.68 -4.68 6.36 -4 5 C-3.34 5 -2.68 5 -2 5 C-1.34 3.35 -0.68 1.7 0 0 Z M-1 9 C-0.34 9.33 0.32 9.66 1 10 C-0.32 10.99 -1.64 11.98 -3 13 C-3 12.01 -3 11.02 -3 10 C-2.34 9.67 -1.68 9.34 -1 9 Z " fill="#14579E" transform="translate(86,31)"/>
<path d="M0 0 C2.17944188 3.26916282 2.23305854 3.86280386 1.8125 7.5625 C1.73644531 8.34753906 1.66039062 9.13257813 1.58203125 9.94140625 C1 12 1 12 -2 14 C-3.19232613 16.05003955 -3.19232613 16.05003955 -4 18 C-4.625 16.1875 -4.625 16.1875 -5 14 C-4.34 13.01 -3.68 12.02 -3 11 C-2.01 11 -1.02 11 0 11 C-0.66 9.68 -1.32 8.36 -2 7 C-5.63 7 -9.26 7 -13 7 C-13 6.34 -13 5.68 -13 5 C-10.00519083 4.1276588 -7.36424089 3.89170234 -4.25 3.9375 C-3.45078125 3.94652344 -2.6515625 3.95554687 -1.828125 3.96484375 C-1.22484375 3.97644531 -0.6215625 3.98804688 0 4 C0 2.68 0 1.36 0 0 Z " fill="#3185B1" transform="translate(57,18)"/>
<path d="M0 0 C1.32 0 2.64 0 4 0 C4.20852314 6.40629424 4.1583195 11.92972642 2 18 C1.34 18 0.68 18 0 18 C0 12.06 0 6.12 0 0 Z " fill="#8CAFDC" transform="translate(95,54)"/>
<path d="M0 0 C4.90500808 1.36250224 6.49219505 3.67619837 9 8 C9.69429379 9.3191582 10.37530495 10.64649406 11 12 C6.19331488 11.5528665 3.26736368 10.6517594 0 7 C-0.3125 3.25 -0.3125 3.25 0 0 Z " fill="#B4DCF5" transform="translate(81,16)"/>
<path d="M0 0 C0.69738281 0.00451172 1.39476562 0.00902344 2.11328125 0.01367188 C3.82555803 0.0253998 5.53779033 0.04333347 7.25 0.0625 C7.91 1.3825 8.57 2.7025 9.25 4.0625 C1.99 3.7325 -5.27 3.4025 -12.75 3.0625 C-11.75 1.0625 -11.75 1.0625 -10.171875 0.44140625 C-6.78082655 -0.08912875 -3.42142682 -0.04204022 0 0 Z " fill="#E9F3FA" transform="translate(58.75,9.9375)"/>
<path d="M0 0 C0.99 0 1.98 0 3 0 C3 6.6 3 13.2 3 20 C2.01 20 1.02 20 0 20 C0 13.4 0 6.8 0 0 Z " fill="#8FB4E0" transform="translate(91,53)"/>
<path d="M0 0 C9.57 0 19.14 0 29 0 C26.36340315 2.63659685 25.0834201 2.27663991 21.40625 2.34375 C19.73755859 2.38822266 19.73755859 2.38822266 18.03515625 2.43359375 C14.5 2.5 14.5 2.5 10.96484375 2.56640625 C9.29615234 2.61087891 9.29615234 2.61087891 7.59375 2.65625 C6.56958984 2.67494141 5.54542969 2.69363281 4.49023438 2.71289062 C1.82711876 2.75857145 1.82711876 2.75857145 0 5 C0 3.35 0 1.7 0 0 Z " fill="#6E91AD" transform="translate(47,51)"/>
<path d="M0 0 C2.015625 3.703125 2.015625 3.703125 1.875 6.375 C0.73404077 9.79787768 -0.68192136 12.23118385 -3 15 C-5.75 15.375 -5.75 15.375 -8 15 C-6.62712658 11.30123909 -4.93644547 8.0485524 -2.875 4.6875 C-2.33617188 3.80449219 -1.79734375 2.92148438 -1.2421875 2.01171875 C-0.83226563 1.34785156 -0.42234375 0.68398437 0 0 Z " fill="#1C2E67" transform="translate(103,78)"/>
<path d="M0 0 C-1.81838285 3.40946783 -3.00017949 4.00005983 -6.75 5.25 C-10.56395788 6.05516889 -14.11353827 6.16193591 -18 6 C-17.34 5.67 -16.68 5.34 -16 5 C-15.67 4.01 -15.34 3.02 -15 2 C-9.83595969 0.30833162 -5.4035577 -0.22514824 0 0 Z " fill="#283C73" transform="translate(76,108)"/>
<path d="M0 0 C0.33 0 0.66 0 1 0 C1 5.94 1 11.88 1 18 C1.66 18 2.32 18 3 18 C3.66 12.39 4.32 6.78 5 1 C5.33 1 5.66 1 6 1 C6.0544452 3.20805524 6.09299283 5.41650554 6.125 7.625 C6.14820312 8.85476562 6.17140625 10.08453125 6.1953125 11.3515625 C6.0030428 14.94316041 5.30258556 17.66661175 4 21 C2.02 20.67 0.04 20.34 -2 20 C-1.34 19.67 -0.68 19.34 0 19 C0 12.73 0 6.46 0 0 Z " fill="#153066" transform="translate(94,54)"/>
<path d="M0 0 C0.66 0.33 1.32 0.66 2 1 C2.33 1.99 2.66 2.98 3 4 C4.8653245 5.01754868 4.8653245 5.01754868 7.0625 5.6875 C7.79597656 5.93886719 8.52945313 6.19023438 9.28515625 6.44921875 C9.85105469 6.63097656 10.41695312 6.81273438 11 7 C10.01 7.495 10.01 7.495 9 8 C9 8.66 9 9.32 9 10 C9.99 10.33 10.98 10.66 12 11 C8.37673261 12.2077558 7.35853631 11.54311128 4 10 C4 9.34 4 8.68 4 8 C3.443125 8.33 2.88625 8.66 2.3125 9 C-0.30284522 10.1309601 -2.1806646 10.15662974 -5 10 C-4.360625 9.773125 -3.72125 9.54625 -3.0625 9.3125 C-0.76123042 8.16123555 -0.76123042 8.16123555 -0.25 5.5625 C0.04854998 2.93147372 0.04854998 2.93147372 0 0 Z " fill="#245E90" transform="translate(31,100)"/>
<path d="M0 0 C4.29 0 8.58 0 13 0 C13 1.32 13 2.64 13 4 C8.71 4 4.42 4 0 4 C0 2.68 0 1.36 0 0 Z " fill="#BFDEF3" transform="translate(55,33)"/>
<path d="M0 0 C3.26566506 4.89849759 3.09311493 8.31998909 3 14 C1.35 13.67 -0.3 13.34 -2 13 C-1.85769192 11.58297487 -1.71099254 10.1663904 -1.5625 8.75 C-1.48128906 7.96109375 -1.40007813 7.1721875 -1.31640625 6.359375 C-1.02365007 4.17635361 -0.57935581 2.1226818 0 0 Z " fill="#C5EBF8" transform="translate(22,82)"/>
<path d="M0 0 C-0.99 1.485 -0.99 1.485 -2 3 C-3.11375 2.979375 -4.2275 2.95875 -5.375 2.9375 C-9.00142804 2.64369804 -9.00142804 2.64369804 -11.3125 4.75 C-12.83716579 6.78288772 -14.00106153 8.66914357 -15 11 C-15.33 11 -15.66 11 -16 11 C-15.77407627 7.08398866 -15.53572471 4.67397624 -13.0625 1.5625 C-8.70740598 -0.65948675 -4.79719226 -0.33533771 0 0 Z " fill="#D4F5FC" transform="translate(39,59)"/>
<path d="M0 0 C3 1 3 1 4.75 3.6875 C6.14923583 7.39547495 6.13645703 9.24094982 5 13 C4.01 13.495 4.01 13.495 3 14 C2.29866401 12.42274653 1.614417 10.83788667 0.9375 9.25 C0.55464844 8.36828125 0.17179687 7.4865625 -0.22265625 6.578125 C-1.04600008 3.84743691 -0.9773992 2.63098653 0 0 Z " fill="#213D79" transform="translate(101,31)"/>
<path d="M0 0 C0.33 0.66 0.66 1.32 1 2 C1.66 2 2.32 2 3 2 C5.28964059 6.94080338 5.28964059 6.94080338 4.46484375 9.95703125 C3.71434788 11.67095437 2.86320768 13.33998524 2 15 C1.67 15 1.34 15 1 15 C0.87625 14.195625 0.7525 13.39125 0.625 12.5625 C0.315625 11.2940625 0.315625 11.2940625 0 10 C-0.66 9.67 -1.32 9.34 -2 9 C-1.34 6.03 -0.68 3.06 0 0 Z " fill="#95C1E7" transform="translate(99,69)"/>
<path d="M0 0 C1.21236328 0.01353516 1.21236328 0.01353516 2.44921875 0.02734375 C3.37154297 0.04474609 3.37154297 0.04474609 4.3125 0.0625 C3.36117187 0.49175781 3.36117187 0.49175781 2.390625 0.9296875 C-0.10311201 2.28905542 -0.65182124 3.47330309 -1.6875 6.0625 C-4.3275 6.0625 -6.9675 6.0625 -9.6875 6.0625 C-8.875 3.625 -8.875 3.625 -7.6875 1.0625 C-4.80538698 0.10179566 -2.98899956 -0.04331883 0 0 Z " fill="#A3CDF2" transform="translate(60.6875,103.9375)"/>
<path d="M0 0 C1.9375 0.75 1.9375 0.75 3.9375 2.75 C3.5625 4.875 3.5625 4.875 2.9375 6.75 C1.6175 6.42 0.2975 6.09 -1.0625 5.75 C-1.3925 6.74 -1.7225 7.73 -2.0625 8.75 C-2.7225 8.42 -3.3825 8.09 -4.0625 7.75 C-4.6875 4.6875 -4.6875 4.6875 -5.0625 1.75 C-2.0625 -0.25 -2.0625 -0.25 0 0 Z " fill="#1C74B3" transform="translate(34.0625,92.25)"/>
<path d="M0 0 C0.33 0 0.66 0 1 0 C1.19818283 6.70518586 1.30844801 12.65176798 -1 19 C-1.309375 18.360625 -1.61875 17.72125 -1.9375 17.0625 C-2.8345163 15.06389179 -2.8345163 15.06389179 -4 14 C-4.07258946 11.81360547 -4.08373783 9.62499611 -4.0625 7.4375 C-4.05347656 6.23996094 -4.04445313 5.04242188 -4.03515625 3.80859375 C-4.02355469 2.88175781 -4.01195313 1.95492187 -4 1 C-3.67 1 -3.34 1 -3 1 C-2.67 4.96 -2.34 8.92 -2 13 C-0.70651608 8.47050597 -0.70651608 8.47050597 -1.5625 5.9375 C-2.14582607 3.35419883 -1.34051555 2.20790796 0 0 Z " fill="#4A5F91" transform="translate(110,54)"/>
<path d="M0 0 C1.97909398 -0.02686553 3.95828971 -0.04633375 5.9375 -0.0625 C7.03964844 -0.07410156 8.14179687 -0.08570313 9.27734375 -0.09765625 C12 0 12 0 13 1 C13.125 4.5 13.125 4.5 13 8 C12 9 12 9 9.4375 9.0625 C8.633125 9.041875 7.82875 9.02125 7 9 C8.32 8.67 9.64 8.34 11 8 C11 6.02 11 4.04 11 2 C7.04 2 3.08 2 -1 2 C-0.67 1.34 -0.34 0.68 0 0 Z " fill="#31658C" transform="translate(68,15)"/>
<path d="M0 0 C-0.66 1.32 -1.32 2.64 -2 4 C-2.66 4 -3.32 4 -4 4 C-4.33 4.66 -4.66 5.32 -5 6 C-6.65 6 -8.3 6 -10 6 C-8.94901234 3.13367003 -8.33137046 2.16993357 -5.5625 0.75 C-3 0 -3 0 0 0 Z M-14 7 C-13.01 7 -12.02 7 -11 7 C-11.33 8.32 -11.66 9.64 -12 11 C-12.99 11 -13.98 11 -15 11 C-14.67 9.68 -14.34 8.36 -14 7 Z " fill="#F6FBFB" transform="translate(38,15)"/>
<path d="M0 0 C1.41805831 0.28482368 2.83440379 0.57818144 4.25 0.875 C5.03890625 1.03742187 5.8278125 1.19984375 6.640625 1.3671875 C8.96831144 1.99150075 10.89031952 2.84838542 13 4 C13 4.33 13 4.66 13 5 C8.38 5.33 3.76 5.66 -1 6 C-1 5.34 -1 4.68 -1 4 C-0.01 4 0.98 4 2 4 C1.34 2.68 0.68 1.36 0 0 Z " fill="#C1EBFC" transform="translate(66,10)"/>
<path d="M0 0 C4.82360189 -0.19294408 8.49646738 0.24252386 13 2 C12.01 2.33 11.02 2.66 10 3 C9.34 2.67 8.68 2.34 8 2 C8.33 2.99 8.66 3.98 9 5 C4.05 4.67 -0.9 4.34 -6 4 C-6 3.67 -6 3.34 -6 3 C-3.36 2.67 -0.72 2.34 2 2 C1.34 1.34 0.68 0.68 0 0 Z " fill="#4A9AC1" transform="translate(59,5)"/>
<path d="M0 0 C-0.33 0.33 -0.66 0.66 -1 1 C-0.01 1.66 0.98 2.32 2 3 C-7.01531729 5.27571116 -7.01531729 5.27571116 -11.125 4.125 C-11.74375 3.75375 -12.3625 3.3825 -13 3 C-8.8341563 0.22277086 -4.9360889 -1.89849573 0 0 Z " fill="#4AA5C9" transform="translate(47,7)"/>
<path d="M0 0 C0.99 0.33 1.98 0.66 3 1 C2.67 2.98 2.34 4.96 2 7 C6.48133574 7.72256829 6.48133574 7.72256829 11 8 C11.99 8.33 12.98 8.66 14 9 C11.29708884 10.93065083 9.74988039 12.03570859 6.375 11.875 C3.64999747 10.8710517 2.57924304 10.44782672 1 8 C0.45441653 5.31975498 0.22433636 2.73690355 0 0 Z " fill="#4B88B4" transform="translate(21,100)"/>
<path d="M0 0 C1.8871875 0.061875 1.8871875 0.061875 3.8125 0.125 C3.8125 0.455 3.8125 0.785 3.8125 1.125 C1.5025 1.125 -0.8075 1.125 -3.1875 1.125 C-3.5175 2.115 -3.8475 3.105 -4.1875 4.125 C-4.8475 4.125 -5.5075 4.125 -6.1875 4.125 C-6.331875 5.259375 -6.47625 6.39375 -6.625 7.5625 C-7.1875 11.125 -7.1875 11.125 -8.1875 12.125 C-10.04037502 12.19726502 -11.89583878 12.2088122 -13.75 12.1875 C-14.76191406 12.17847656 -15.77382813 12.16945313 -16.81640625 12.16015625 C-17.59886719 12.14855469 -18.38132812 12.13695313 -19.1875 12.125 C-19.1875 11.795 -19.1875 11.465 -19.1875 11.125 C-15.8875 10.795 -12.5875 10.465 -9.1875 10.125 C-8.919375 8.84625 -8.65125 7.5675 -8.375 6.25 C-7.33485089 1.28928888 -4.99683143 -0.16383054 0 0 Z " fill="#1E6393" transform="translate(41.1875,69.875)"/>
<path d="M0 0 C2.1519437 3.22791555 2.20086443 4.28400809 2 8 C-0.9615696 9.4807848 -3.83506295 9.35314037 -7.125 9.5625 C-8.40632813 9.64628906 -9.68765625 9.73007812 -11.0078125 9.81640625 C-11.99523438 9.87699219 -12.98265625 9.93757813 -14 10 C-11.39395012 8.26263341 -9.92766764 7.54996173 -7 6.8125 C-6.319375 6.63332031 -5.63875 6.45414063 -4.9375 6.26953125 C-3 6 -3 6 0 7 C0 4.69 0 2.38 0 0 Z " fill="#318ABC" transform="translate(45,48)"/>
<path d="M0 0 C0.33 0 0.66 0 1 0 C1 3.3 1 6.6 1 10 C4.63 10 8.26 10 12 10 C12 10.33 12 10.66 12 11 C8.7 11 5.4 11 2 11 C2 12.65 2 14.3 2 16 C0.68 14.68 -0.64 13.36 -2 12 C-1.34 11.67 -0.68 11.34 0 11 C0 7.37 0 3.74 0 0 Z " fill="#4090BA" transform="translate(20,70)"/>
<path d="M0 0 C6.4 -0.36923077 6.4 -0.36923077 9.4375 1.5 C9.953125 1.995 10.46875 2.49 11 3 C10.01 3.99 9.02 4.98 8 6 C4.5625 4.6875 4.5625 4.6875 1 3 C0.67 2.01 0.34 1.02 0 0 Z " fill="#3585B0" transform="translate(67,7)"/>
<path d="M0 0 C3.3 0 6.6 0 10 0 C9 3 9 3 7 4 C4.3276379 4.13415472 1.67749512 4.04318541 -1 4 C-0.67 2.68 -0.34 1.36 0 0 Z " fill="#223D75" transform="translate(51,110)"/>
<path d="M0 0 C-0.33 1.65 -0.66 3.3 -1 5 C-2.98 5.66 -4.96 6.32 -7 7 C-7 6.34 -7 5.68 -7 5 C-8.32 4.67 -9.64 4.34 -11 4 C-9.5437455 3.32880451 -8.08492133 2.66318193 -6.625 2 C-5.81289062 1.62875 -5.00078125 1.2575 -4.1640625 0.875 C-2 0 -2 0 0 0 Z " fill="#1D3069" transform="translate(81,104)"/>
<path d="M0 0 C1.32 0 2.64 0 4 0 C3 4 2 8 1 12 C0.01 11.67 -0.98 11.34 -2 11 C-2.24042276 6.91281305 -1.42258812 3.82320557 0 0 Z " fill="#CAE6F0" transform="translate(32,68)"/>
<path d="M0 0 C-0.99 0.495 -0.99 0.495 -2 1 C-1.67 2.32 -1.34 3.64 -1 5 C-1.66 5 -2.32 5 -3 5 C-3 3.68 -3 2.36 -3 1 C-4.25683594 1.26103516 -4.25683594 1.26103516 -5.5390625 1.52734375 C-9.2887866 2.03943925 -12.60814997 1.88232689 -16.375 1.5625 C-17.62023438 1.46066406 -18.86546875 1.35882812 -20.1484375 1.25390625 C-21.55996094 1.12822266 -21.55996094 1.12822266 -23 1 C-23 0.67 -23 0.34 -23 0 C-20.29204274 -0.19601027 -17.58400195 -0.38204839 -14.875 -0.5625 C-14.11445312 -0.61857422 -13.35390625 -0.67464844 -12.5703125 -0.73242188 C-8.20006872 -1.01498074 -4.31929331 -0.93147699 0 0 Z " fill="#5C94B1" transform="translate(67,16)"/>
<path d="M0 0 C1.65 0 3.3 0 5 0 C1.19588166 3.91939465 -2.81576108 7.49102731 -7 11 C-7 10.01 -7 9.02 -7 8 C-6.34 8 -5.68 8 -5 8 C-5 7.01 -5 6.02 -5 5 C-4.01 5 -3.02 5 -2 5 C-1.34 3.35 -0.68 1.7 0 0 Z " fill="#D4EEF7" transform="translate(28,21)"/>
<path d="M0 0 C0 0.33 0 0.66 0 1 C-2.64 1.33 -5.28 1.66 -8 2 C-8 2.66 -8 3.32 -8 4 C-9.32 3.67 -10.64 3.34 -12 3 C-11.67 4.32 -11.34 5.64 -11 7 C-11.99 7 -12.98 7 -14 7 C-14 5.35 -14 3.7 -14 2 C-9.07262981 0.02905192 -5.21979128 -0.1799928 0 0 Z " fill="#3083BC" transform="translate(79,22)"/>
<path d="M0 0 C1.32 0 2.64 0 4 0 C4 0.66 4 1.32 4 2 C5.65 2 7.3 2 9 2 C8.67 3.32 8.34 4.64 8 6 C4.7 5.01 1.4 4.02 -2 3 C-1.34 2.67 -0.68 2.34 0 2 C0 1.34 0 0.68 0 0 Z " fill="#1B65A2" transform="translate(39,97)"/>
<path d="M0 0 C0 2.31 0 4.62 0 7 C-1.65 7 -3.3 7 -5 7 C-5 5.02 -5 3.04 -5 1 C-1.125 0 -1.125 0 0 0 Z " fill="#BDE1F1" transform="translate(64,23)"/>
<path d="M0 0 C0.99 0.33 1.98 0.66 3 1 C3.37211538 7.57403846 3.37211538 7.57403846 1.48828125 9.73046875 C0.99714844 10.14941406 0.50601562 10.56835938 0 11 C-0.19406478 9.35492782 -0.38007935 7.70890406 -0.5625 6.0625 C-0.66691406 5.14597656 -0.77132813 4.22945313 -0.87890625 3.28515625 C-0.91886719 2.53105469 -0.95882813 1.77695312 -1 1 C-0.67 0.67 -0.34 0.34 0 0 Z " fill="#57AAD1" transform="translate(13,60)"/>
<path d="M0 0 C3.96 0 7.92 0 12 0 C12 0.99 12 1.98 12 3 C9.03 3 6.06 3 3 3 C3 2.34 3 1.68 3 1 C2.01 0.67 1.02 0.34 0 0 Z " fill="#BADEF9" transform="translate(64,48)"/>
<path d="M0 0 C2.76262553 0.3810518 3.84143894 0.83597132 5.8125 2.875 C6.204375 3.57625 6.59625 4.2775 7 5 C6.67 5.99 6.34 6.98 6 8 C3.69 6.02 1.38 4.04 -1 2 C-0.67 1.34 -0.34 0.68 0 0 Z " fill="#1B588D" transform="translate(89,18)"/>
<path d="M0 0 C3.96 0 7.92 0 12 0 C12 1.65 12 3.3 12 5 C11.01 4.34 10.02 3.68 9 3 C6.9820211 2.62152955 6.9820211 2.62152955 4.875 2.5 C3.59625 2.335 2.3175 2.17 1 2 C0.67 1.34 0.34 0.68 0 0 Z " fill="#132565" transform="translate(79,70)"/>
<path d="M0 0 C0.89203125 0.00902344 1.7840625 0.01804687 2.703125 0.02734375 C3.37859375 0.03894531 4.0540625 0.05054688 4.75 0.0625 C4.75 0.3925 4.75 0.7225 4.75 1.0625 C3.1 1.0625 1.45 1.0625 -0.25 1.0625 C-0.25 1.7225 -0.25 2.3825 -0.25 3.0625 C-3.55 3.0625 -6.85 3.0625 -10.25 3.0625 C-9.25 1.0625 -9.25 1.0625 -7.515625 0.44140625 C-4.96855716 0.01543111 -2.58143831 -0.03396629 0 0 Z " fill="#F2FCFB" transform="translate(56.25,9.9375)"/>
<path d="M0 0 C1.2065625 0.0309375 1.2065625 0.0309375 2.4375 0.0625 C2.4375 1.7125 2.4375 3.3625 2.4375 5.0625 C0.7875 5.0625 -0.8625 5.0625 -2.5625 5.0625 C-3.125 3.125 -3.125 3.125 -3.5625 1.0625 C-2.5625 0.0625 -2.5625 0.0625 0 0 Z " fill="#D2EEF7" transform="translate(61.5625,16.9375)"/>
<path d="M0 0 C1.98 0.66 3.96 1.32 6 2 C6 2.66 6 3.32 6 4 C6.66 4.33 7.32 4.66 8 5 C5.75 5.75 5.75 5.75 3 6 C0.6875 4.0625 0.6875 4.0625 -1 2 C-0.67 1.34 -0.34 0.68 0 0 Z " fill="#1F6AA6" transform="translate(49,72)"/>
<path d="M0 0 C2.33944736 0.28730055 4.6739143 0.61936779 7 1 C7 1.33 7 1.66 7 2 C5.35 2.33 3.7 2.66 2 3 C1.67 4.65 1.34 6.3 1 8 C1.99 8.33 2.98 8.66 4 9 C4 9.33 4 9.66 4 10 C1.36 10 -1.28 10 -4 10 C-2.68 9.67 -1.36 9.34 0 9 C-0.185625 7.700625 -0.37125 6.40125 -0.5625 5.0625 C-0.87890625 2.84765625 -0.87890625 2.84765625 -1 1 C-0.67 0.67 -0.34 0.34 0 0 Z " fill="#2C6D9A" transform="translate(64,21)"/>
<path d="M0 0 C1.32 0 2.64 0 4 0 C4.1875 3.375 4.1875 3.375 4 7 C3.01 7.66 2.02 8.32 1 9 C-0.19232613 11.05003955 -0.19232613 11.05003955 -1 13 C-1.625 11.1875 -1.625 11.1875 -2 9 C-1.34 8.01 -0.68 7.02 0 6 C0.99 6 1.98 6 3 6 C2.01 4.02 1.02 2.04 0 0 Z " fill="#208AC3" transform="translate(54,23)"/>
<path d="M0 0 C0.66 0 1.32 0 2 0 C2 2.64 2 5.28 2 8 C1.34 8 0.68 8 0 8 C0 8.66 0 9.32 0 10 C-0.66 10 -1.32 10 -2 10 C-1.46274105 6.62294375 -0.88935377 3.303314 0 0 Z " fill="#F8FCFB" transform="translate(11,41)"/>
<path d="M0 0 C2.88437779 1.29299694 4.87219421 2.65941363 7 5 C5.02 5.99 5.02 5.99 3 7 C1.68 5.35 0.36 3.7 -1 2 C-0.67 1.34 -0.34 0.68 0 0 Z " fill="#286A9D" transform="translate(84,13)"/>
<path d="M0 0 C1.32 0.33 2.64 0.66 4 1 C4 1.66 4 2.32 4 3 C-1.625 6 -1.625 6 -5 6 C-5.33 5.01 -5.66 4.02 -6 3 C-5.195625 2.87625 -4.39125 2.7525 -3.5625 2.625 C-2.716875 2.41875 -1.87125 2.2125 -1 2 C-0.67 1.34 -0.34 0.68 0 0 Z " fill="#AACEEE" transform="translate(71,69)"/>
<path d="M0 0 C0 0.99 0 1.98 0 3 C1.65 3 3.3 3 5 3 C5 3.33 5 3.66 5 4 C2.36 4.33 -0.28 4.66 -3 5 C-3.33 4.34 -3.66 3.68 -4 3 C-4.99 3.33 -5.98 3.66 -7 4 C-7 3.34 -7 2.68 -7 2 C-4.35261084 0.5393715 -3.10551666 0 0 0 Z " fill="#3AA7D9" transform="translate(43,19)"/>
<path d="M0 0 C5.61 0 11.22 0 17 0 C17 0.33 17 0.66 17 1 C11.02480718 1.91926043 5.95415918 2.0825744 0 1 C0 0.67 0 0.34 0 0 Z " fill="#D0EDFC" transform="translate(49,53)"/>
<path d="M0 0 C1.65 0.33 3.3 0.66 5 1 C3.02 3.31 1.04 5.62 -1 8 C-2.2077558 4.37673261 -1.54311128 3.35853631 0 0 Z " fill="#38467F" transform="translate(94,92)"/>
<path d="M0 0 C0.33 0 0.66 0 1 0 C1.39036513 1.60049704 1.76178619 3.20562371 2.125 4.8125 C2.33382812 5.70582031 2.54265625 6.59914063 2.7578125 7.51953125 C3 10 3 10 1 13 C0 12 0 12 -0.09765625 9.27734375 C-0.08605469 8.17519531 -0.07445313 7.07304688 -0.0625 5.9375 C-0.05347656 4.83277344 -0.04445313 3.72804687 -0.03515625 2.58984375 C-0.02355469 1.73519531 -0.01195313 0.88054688 0 0 Z " fill="#1C3165" transform="translate(107,55)"/>
<path d="M0 0 C0 0.66 0 1.32 0 2 C-1.32 1.67 -2.64 1.34 -4 1 C-4.33 1.99 -4.66 2.98 -5 4 C-5.66 3.67 -6.32 3.34 -7 3 C-7.625 0.9375 -7.625 0.9375 -8 -1 C-3.375 -2.25 -3.375 -2.25 0 0 Z " fill="#3078A9" transform="translate(37,97)"/>
<path d="M0 0 C0.99 0.33 1.98 0.66 3 1 C3 2.98 3 4.96 3 7 C1.68 6.01 0.36 5.02 -1 4 C-1.33 4.66 -1.66 5.32 -2 6 C-1.125 1.125 -1.125 1.125 0 0 Z " fill="#A0CDF4" transform="translate(97,78)"/>
<path d="M0 0 C2.475 0.99 2.475 0.99 5 2 C3.68 4.31 2.36 6.62 1 9 C0.34 9 -0.32 9 -1 9 C-0.67 6.03 -0.34 3.06 0 0 Z " fill="#21418A" transform="translate(77,70)"/>
<path d="M0 0 C0.33 0 0.66 0 1 0 C1 3.96 1 7.92 1 12 C0.01 12.495 0.01 12.495 -1 13 C-1.2236337 11.58566794 -1.42826476 10.16832382 -1.625 8.75 C-1.74101563 7.96109375 -1.85703125 7.1721875 -1.9765625 6.359375 C-2.00319395 3.67847541 -1.36592084 2.27305911 0 0 Z " fill="#3D508C" transform="translate(110,54)"/>
<path d="M0 0 C0.33 0 0.66 0 1 0 C0.67 2.31 0.34 4.62 0 7 C-0.99 7 -1.98 7 -3 7 C-3.33 7.99 -3.66 8.98 -4 10 C-4 8.35 -4 6.7 -4 5 C-3.34 5 -2.68 5 -2 5 C-1.34 3.35 -0.68 1.7 0 0 Z " fill="#3B9CC6" transform="translate(11,32)"/>
<path d="M0 0 C1.32 0.66 2.64 1.32 4 2 C3.01 3.32 2.02 4.64 1 6 C0.67 5.34 0.34 4.68 0 4 C-0.66 5.32 -1.32 6.64 -2 8 C-2.66 7.67 -3.32 7.34 -4 7 C-2.68 4.69 -1.36 2.38 0 0 Z " fill="#51A7CA" transform="translate(11,29)"/>
<path d="M0 0 C1.32 0.66 2.64 1.32 4 2 C4 2.99 4 3.98 4 5 C3.01 5.66 2.02 6.32 1 7 C0.34 5.02 -0.32 3.04 -1 1 C-0.67 0.67 -0.34 0.34 0 0 Z " fill="#115E9F" transform="translate(83,25)"/>
<path d="M0 0 C2 2 2 2 2 5 C-0.31 5 -2.62 5 -5 5 C-4.34 4.67 -3.68 4.34 -3 4 C-2.67 3.01 -2.34 2.02 -2 1 C-1.34 0.67 -0.68 0.34 0 0 Z " fill="#56689C" transform="translate(63,109)"/>
<path d="M0 0 C0 3 0 3 -1 6 C-4.5625 7.1875 -4.5625 7.1875 -8 8 C-5.58443874 4.80800833 -3.31996462 2.25283313 0 0 Z " fill="#162D65" transform="translate(93,94)"/>
<path d="M0 0 C1.32 0.33 2.64 0.66 4 1 C3.67 2.32 3.34 3.64 3 5 C1.35 5 -0.3 5 -2 5 C-1.34 3.35 -0.68 1.7 0 0 Z " fill="#24376D" transform="translate(97,88)"/>
<path d="M0 0 C3.3 0 6.6 0 10 0 C9.67 0.66 9.34 1.32 9 2 C6.03 1.505 6.03 1.505 3 1 C3 1.99 3 2.98 3 4 C2.01 3.67 1.02 3.34 0 3 C0 2.01 0 1.02 0 0 Z " fill="#2987C0" transform="translate(23,82)"/>
<path d="M0 0 C2.64 0 5.28 0 8 0 C7.01 1.485 7.01 1.485 6 3 C3.69 2.67 1.38 2.34 -1 2 C-0.67 1.34 -0.34 0.68 0 0 Z " fill="#E8F7F9" transform="translate(31,59)"/>
<path d="M0 0 C1 3 1 3 0.22265625 4.82421875 C-0.8515625 6.54947917 -1.92578125 8.27473958 -3 10 C-3.66 10 -4.32 10 -5 10 C-3.84414715 6.08788267 -2.64465038 3.1254959 0 0 Z " fill="#D4F7FD" transform="translate(16,29)"/>
<path d="M0 0 C0.66 0.33 1.32 0.66 2 1 C1.01 3.31 0.02 5.62 -1 8 C-1.99 7.01 -2.98 6.02 -4 5 C-2.68 3.35 -1.36 1.7 0 0 Z " fill="#3A9CC2" transform="translate(16,23)"/>
<path d="M0 0 C0.33 1.32 0.66 2.64 1 4 C-3.75 7 -3.75 7 -6 7 C-6 6.34 -6 5.68 -6 5 C-4.04072937 3.2856382 -2.04119788 1.61594832 0 0 Z " fill="#27498B" transform="translate(80,93)"/>
<path d="M0 0 C2.0343459 1.41519715 2.90410393 2.54982123 3.421875 4.98046875 C3.66273952 6.98176954 3.83532741 8.9909944 4 11 C0.85041169 7.57653445 0.43820891 4.55737263 0 0 Z " fill="#3B92BC" transform="translate(14,70)"/>
<path d="M0 0 C2.97 0.495 2.97 0.495 6 1 C5.01 1.495 5.01 1.495 4 2 C2.86649466 4.01669827 2.86649466 4.01669827 2 6 C1.01 6 0.02 6 -1 6 C-1 5.34 -1 4.68 -1 4 C-0.01 4 0.98 4 2 4 C1.34 2.68 0.68 1.36 0 0 Z " fill="#CBE8F6" transform="translate(66,10)"/>
<path d="M0 0 C2.31 0.66 4.62 1.32 7 2 C6.67 2.99 6.34 3.98 6 5 C3 5 3 5 1.3125 3.625 C0 2 0 2 0 0 Z " fill="#213E86" transform="translate(91,73)"/>
<path d="M0 0 C1.5625 1.8125 1.5625 1.8125 3 4 C2.67 4.99 2.34 5.98 2 7 C0.68 6.34 -0.64 5.68 -2 5 C-1.34 3.35 -0.68 1.7 0 0 Z " fill="#96C0EA" transform="translate(100,35)"/>
<path d="M0 0 C3.3 0 6.6 0 10 0 C10 0.99 10 1.98 10 3 C6.7 2.67 3.4 2.34 0 2 C0 1.34 0 0.68 0 0 Z " fill="#216DA7" transform="translate(73,23)"/>
<path d="M0 0 C1.32 0 2.64 0 4 0 C4.12375 0.639375 4.2475 1.27875 4.375 1.9375 C4.684375 2.9584375 4.684375 2.9584375 5 4 C5.66 4.33 6.32 4.66 7 5 C3 5 3 5 1.25 3.625 C0 2 0 2 0 0 Z " fill="#1E558D" transform="translate(40,108)"/>
<path d="M0 0 C1.32 0 2.64 0 4 0 C3.42655063 2.86724686 3.1385485 3.8614515 1 6 C0.67 4.02 0.34 2.04 0 0 Z " fill="#E0F1FA" transform="translate(32,68)"/>
<path d="M0 0 C1.32 0 2.64 0 4 0 C3.67 1.98 3.34 3.96 3 6 C1.68 5.34 0.36 4.68 -1 4 C-0.34 4 0.32 4 1 4 C0.67 2.68 0.34 1.36 0 0 Z " fill="#CFE9F7" transform="translate(50,66)"/>
<path d="M0 0 C1.98 0 3.96 0 6 0 C6 0.99 6 1.98 6 3 C4.02 3 2.04 3 0 3 C0 2.01 0 1.02 0 0 Z " fill="#D3F3FD" transform="translate(55,34)"/>
</svg>
